<svg width="778" height="665" viewBox="0 0 778 665" fill="none" xmlns="http://www.w3.org/2000/svg">
<path d="M778 42C778 18.804 759.196 0 736 0H42C18.804 0 0 18.804 0 42V83.125H778V42Z" fill="#272727"/>
<path fill-rule="evenodd" clip-rule="evenodd" d="M0 332.5V181.176H778V332.5V623C778 646.196 759.196 665 736 665H42C18.804 665 0 646.196 0 623V332.5Z" fill="#DBE91F"/>
<path d="M778 181.176V83.125H0V181.176H778Z" fill="#424242"/>
<path d="M767 192.177V623C767 640.121 753.121 654 736 654H42C24.8792 654 11 640.121 11 623V192.177H767ZM767 94.125V170.177H11V94.125H767ZM42 11H736C753.121 11 767 24.8792 767 42V72.125H11V42C11 24.8792 24.8792 11 42 11Z" stroke="#272727" stroke-width="22"/>
<path d="M65.244 144V119.91H70.854V144H65.244ZM88.9277 144.33C85.8697 144.33 83.5047 143.56 81.8327 142.02C80.1827 140.48 79.3577 138.28 79.3577 135.42C79.3577 132.648 80.1277 130.47 81.6677 128.886C83.2297 127.302 85.3637 126.51 88.0697 126.51C90.7097 126.51 92.7557 127.269 94.2077 128.787C95.6817 130.283 96.4187 132.384 96.4187 135.09C96.4187 135.464 96.4077 135.871 96.3857 136.311C96.3637 136.751 96.3307 137.059 96.2867 137.235H82.4267V133.77H91.9967L91.3037 134.826C91.3037 133.242 91.0397 132.087 90.5117 131.361C89.9837 130.613 89.1697 130.239 88.0697 130.239C86.9697 130.239 86.1337 130.624 85.5617 131.394C85.0117 132.142 84.7367 133.297 84.7367 134.859V136.509C84.7367 137.785 85.0777 138.731 85.7597 139.347C86.4637 139.963 87.5417 140.271 88.9937 140.271C89.9837 140.271 91.0067 140.15 92.0627 139.908C93.1187 139.644 94.0427 139.314 94.8347 138.918L95.4617 142.944C94.6477 143.362 93.6687 143.703 92.5247 143.967C91.3807 144.209 90.1817 144.33 88.9277 144.33ZM112.854 144.33C111.006 144.33 109.4 143.967 108.036 143.241C106.694 142.515 105.66 141.492 104.934 140.172C104.208 138.83 103.845 137.246 103.845 135.42C103.845 133.594 104.208 132.021 104.934 130.701C105.66 129.359 106.694 128.325 108.036 127.599C109.4 126.873 111.006 126.51 112.854 126.51C114.702 126.51 116.297 126.873 117.639 127.599C119.003 128.325 120.048 129.359 120.774 130.701C121.522 132.021 121.896 133.594 121.896 135.42C121.896 137.246 121.522 138.83 120.774 140.172C120.048 141.492 119.003 142.515 117.639 143.241C116.297 143.967 114.702 144.33 112.854 144.33ZM112.854 140.271C113.998 140.271 114.867 139.864 115.461 139.05C116.077 138.214 116.385 137.004 116.385 135.42C116.385 133.836 116.077 132.637 115.461 131.823C114.867 130.987 113.998 130.569 112.854 130.569C111.71 130.569 110.841 130.987 110.247 131.823C109.653 132.637 109.356 133.836 109.356 135.42C109.356 137.004 109.653 138.214 110.247 139.05C110.841 139.864 111.71 140.271 112.854 140.271ZM130.257 144V126.84H135.471L135.537 129.15H135.603C136.373 128.204 137.198 127.533 138.078 127.137C138.958 126.719 140.003 126.51 141.213 126.51C143.281 126.51 144.777 127.104 145.701 128.292C146.625 129.48 147.087 131.416 147.087 134.1V144H141.576V135.189C141.576 133.737 141.378 132.681 140.982 132.021C140.608 131.361 139.992 131.031 139.134 131.031C138.496 131.031 137.924 131.185 137.418 131.493C136.912 131.801 136.505 132.219 136.197 132.747C135.889 133.253 135.735 133.814 135.735 134.43V144H130.257ZM160.191 144.33C158.541 144.33 157.232 143.857 156.264 142.911C155.296 141.965 154.812 140.689 154.812 139.083C154.812 137.147 155.571 135.651 157.089 134.595C158.629 133.539 160.796 133.011 163.59 133.011H165.603C165.603 132.109 165.361 131.482 164.877 131.13C164.415 130.756 163.601 130.569 162.435 130.569C161.379 130.569 160.323 130.701 159.267 130.965C158.233 131.229 157.199 131.625 156.165 132.153L155.538 128.061C156.704 127.533 157.892 127.148 159.102 126.906C160.334 126.642 161.698 126.51 163.194 126.51C165.13 126.51 166.67 126.73 167.814 127.17C168.98 127.588 169.816 128.292 170.322 129.282C170.828 130.25 171.081 131.537 171.081 133.143V144H165.867L165.801 142.02H165.735C165.119 142.724 164.305 143.285 163.293 143.703C162.303 144.121 161.269 144.33 160.191 144.33ZM162.27 140.403C162.908 140.403 163.48 140.293 163.986 140.073C164.492 139.853 164.888 139.556 165.174 139.182C165.46 138.786 165.603 138.346 165.603 137.862V136.245H164.415C162.875 136.245 161.731 136.432 160.983 136.806C160.235 137.158 159.861 137.73 159.861 138.522C159.861 139.116 160.07 139.578 160.488 139.908C160.906 140.238 161.5 140.403 162.27 140.403ZM180.069 144V126.84H185.349L185.382 129.909H185.448C186.086 129.183 186.79 128.567 187.56 128.061C188.33 127.533 189.155 127.148 190.035 126.906C190.937 126.642 191.861 126.51 192.807 126.51V131.064C191.487 131.064 190.277 131.306 189.177 131.79C188.099 132.274 187.23 132.923 186.57 133.737C185.932 134.529 185.613 135.42 185.613 136.41V144H180.069ZM205.889 144.33C203.645 144.33 201.907 143.56 200.675 142.02C199.465 140.48 198.86 138.28 198.86 135.42C198.86 132.56 199.465 130.36 200.675 128.82C201.907 127.28 203.645 126.51 205.889 126.51C206.967 126.51 207.924 126.697 208.76 127.071C209.596 127.445 210.377 128.039 211.103 128.853H211.169V119.91H216.68V144H211.466L211.4 141.987H211.334C210.586 142.779 209.761 143.373 208.859 143.769C207.979 144.143 206.989 144.33 205.889 144.33ZM207.737 140.04C208.419 140.04 209.013 139.908 209.519 139.644C210.047 139.358 210.454 138.973 210.74 138.489C211.026 138.005 211.169 137.455 211.169 136.839V134.001C211.169 133.363 211.026 132.813 210.74 132.351C210.454 131.867 210.047 131.493 209.519 131.229C209.013 130.943 208.419 130.8 207.737 130.8C206.615 130.8 205.746 131.196 205.13 131.988C204.536 132.78 204.239 133.924 204.239 135.42C204.239 136.894 204.536 138.038 205.13 138.852C205.746 139.644 206.615 140.04 207.737 140.04ZM234.032 144.33C232.184 144.33 230.578 143.967 229.214 143.241C227.872 142.515 226.838 141.492 226.112 140.172C225.386 138.83 225.023 137.246 225.023 135.42C225.023 133.594 225.386 132.021 226.112 130.701C226.838 129.359 227.872 128.325 229.214 127.599C230.578 126.873 232.184 126.51 234.032 126.51C235.88 126.51 237.475 126.873 238.817 127.599C240.181 128.325 241.226 129.359 241.952 130.701C242.7 132.021 243.074 133.594 243.074 135.42C243.074 137.246 242.7 138.83 241.952 140.172C241.226 141.492 240.181 142.515 238.817 143.241C237.475 143.967 235.88 144.33 234.032 144.33ZM234.032 140.271C235.176 140.271 236.045 139.864 236.639 139.05C237.255 138.214 237.563 137.004 237.563 135.42C237.563 133.836 237.255 132.637 236.639 131.823C236.045 130.987 235.176 130.569 234.032 130.569C232.888 130.569 232.019 130.987 231.425 131.823C230.831 132.637 230.534 133.836 230.534 135.42C230.534 137.004 230.831 138.214 231.425 139.05C232.019 139.864 232.888 140.271 234.032 140.271ZM246.683 146.937C247.959 146.805 248.982 146.64 249.752 146.442C250.544 146.266 251.138 146.002 251.534 145.65C251.952 145.298 252.238 144.814 252.392 144.198C252.546 143.604 252.623 142.834 252.623 141.888V127.5H258.233V141.888C258.233 143.538 258.057 144.924 257.705 146.046C257.375 147.19 256.803 148.103 255.989 148.785C255.197 149.489 254.108 150.028 252.722 150.402C251.336 150.798 249.598 151.084 247.508 151.26L246.683 146.937ZM255.428 125.355C254.416 125.355 253.624 125.091 253.052 124.563C252.48 124.013 252.194 123.276 252.194 122.352C252.194 121.428 252.48 120.702 253.052 120.174C253.624 119.624 254.416 119.349 255.428 119.349C256.418 119.349 257.199 119.624 257.771 120.174C258.343 120.702 258.629 121.428 258.629 122.352C258.629 123.276 258.343 124.013 257.771 124.563C257.199 125.091 256.418 125.355 255.428 125.355ZM272.346 144.33C270.696 144.33 269.387 143.857 268.419 142.911C267.451 141.965 266.967 140.689 266.967 139.083C266.967 137.147 267.726 135.651 269.244 134.595C270.784 133.539 272.951 133.011 275.745 133.011H277.758C277.758 132.109 277.516 131.482 277.032 131.13C276.57 130.756 275.756 130.569 274.59 130.569C273.534 130.569 272.478 130.701 271.422 130.965C270.388 131.229 269.354 131.625 268.32 132.153L267.693 128.061C268.859 127.533 270.047 127.148 271.257 126.906C272.489 126.642 273.853 126.51 275.349 126.51C277.285 126.51 278.825 126.73 279.969 127.17C281.135 127.588 281.971 128.292 282.477 129.282C282.983 130.25 283.236 131.537 283.236 133.143V144H278.022L277.956 142.02H277.89C277.274 142.724 276.46 143.285 275.448 143.703C274.458 144.121 273.424 144.33 272.346 144.33ZM274.425 140.403C275.063 140.403 275.635 140.293 276.141 140.073C276.647 139.853 277.043 139.556 277.329 139.182C277.615 138.786 277.758 138.346 277.758 137.862V136.245H276.57C275.03 136.245 273.886 136.432 273.138 136.806C272.39 137.158 272.016 137.73 272.016 138.522C272.016 139.116 272.225 139.578 272.643 139.908C273.061 140.238 273.655 140.403 274.425 140.403ZM292.224 144V126.84H297.438L297.504 129.15H297.57C298.34 128.204 299.165 127.533 300.045 127.137C300.925 126.719 301.97 126.51 303.18 126.51C305.248 126.51 306.744 127.104 307.668 128.292C308.592 129.48 309.054 131.416 309.054 134.1V144H303.543V135.189C303.543 133.737 303.345 132.681 302.949 132.021C302.575 131.361 301.959 131.031 301.101 131.031C300.463 131.031 299.891 131.185 299.385 131.493C298.879 131.801 298.472 132.219 298.164 132.747C297.856 133.253 297.702 133.814 297.702 134.43V144H292.224ZM324.105 144.33C322.829 144.33 321.575 144.22 320.343 144C319.133 143.758 318.044 143.417 317.076 142.977L317.703 138.918C318.825 139.358 319.925 139.699 321.003 139.941C322.103 140.161 323.115 140.271 324.039 140.271C324.853 140.271 325.436 140.161 325.788 139.941C326.14 139.721 326.316 139.38 326.316 138.918C326.316 138.654 326.25 138.434 326.118 138.258C325.986 138.082 325.744 137.928 325.392 137.796C325.062 137.664 324.567 137.521 323.907 137.367C322.279 136.971 320.959 136.509 319.947 135.981C318.935 135.453 318.187 134.837 317.703 134.133C317.219 133.407 316.977 132.56 316.977 131.592C316.977 129.92 317.626 128.655 318.924 127.797C320.222 126.939 322.125 126.51 324.633 126.51C325.799 126.51 326.932 126.609 328.032 126.807C329.132 127.005 330.243 127.324 331.365 127.764L330.738 131.823C329.66 131.405 328.626 131.097 327.636 130.899C326.646 130.679 325.711 130.569 324.831 130.569C324.061 130.569 323.489 130.668 323.115 130.866C322.763 131.042 322.587 131.339 322.587 131.757C322.587 131.999 322.664 132.219 322.818 132.417C322.972 132.593 323.225 132.747 323.577 132.879C323.929 133.011 324.402 133.154 324.996 133.308C326.184 133.572 327.218 133.891 328.098 134.265C328.978 134.639 329.693 135.057 330.243 135.519C330.815 135.981 331.233 136.509 331.497 137.103C331.783 137.697 331.926 138.346 331.926 139.05C331.926 140.722 331.233 142.02 329.847 142.944C328.483 143.868 326.569 144.33 324.105 144.33ZM348.81 144.33C345.752 144.33 343.387 143.56 341.715 142.02C340.065 140.48 339.24 138.28 339.24 135.42C339.24 132.648 340.01 130.47 341.55 128.886C343.112 127.302 345.246 126.51 347.952 126.51C350.592 126.51 352.638 127.269 354.09 128.787C355.564 130.283 356.301 132.384 356.301 135.09C356.301 135.464 356.29 135.871 356.268 136.311C356.246 136.751 356.213 137.059 356.169 137.235H342.309V133.77H351.879L351.186 134.826C351.186 133.242 350.922 132.087 350.394 131.361C349.866 130.613 349.052 130.239 347.952 130.239C346.852 130.239 346.016 130.624 345.444 131.394C344.894 132.142 344.619 133.297 344.619 134.859V136.509C344.619 137.785 344.96 138.731 345.642 139.347C346.346 139.963 347.424 140.271 348.876 140.271C349.866 140.271 350.889 140.15 351.945 139.908C353.001 139.644 353.925 139.314 354.717 138.918L355.344 142.944C354.53 143.362 353.551 143.703 352.407 143.967C351.263 144.209 350.064 144.33 348.81 144.33ZM364.589 144V126.84H369.803L369.869 129.15H369.935C370.705 128.204 371.53 127.533 372.41 127.137C373.29 126.719 374.335 126.51 375.545 126.51C377.613 126.51 379.109 127.104 380.033 128.292C380.957 129.48 381.419 131.416 381.419 134.1V144H375.908V135.189C375.908 133.737 375.71 132.681 375.314 132.021C374.94 131.361 374.324 131.031 373.466 131.031C372.828 131.031 372.256 131.185 371.75 131.493C371.244 131.801 370.837 132.219 370.529 132.747C370.221 133.253 370.067 133.814 370.067 134.43V144H364.589ZM394.028 144.33C393.016 144.33 392.224 144.055 391.652 143.505C391.08 142.955 390.794 142.196 390.794 141.228C390.794 140.26 391.08 139.501 391.652 138.951C392.224 138.401 393.016 138.126 394.028 138.126C395.018 138.126 395.799 138.401 396.371 138.951C396.943 139.501 397.229 140.26 397.229 141.228C397.229 142.196 396.943 142.955 396.371 143.505C395.799 144.055 395.018 144.33 394.028 144.33ZM415.026 144.33C412.958 144.33 411.187 143.989 409.713 143.307C408.261 142.603 407.15 141.591 406.38 140.271C405.61 138.929 405.225 137.312 405.225 135.42C405.225 133.528 405.61 131.922 406.38 130.602C407.15 129.26 408.261 128.248 409.713 127.566C411.187 126.862 412.958 126.51 415.026 126.51C416.104 126.51 417.094 126.609 417.996 126.807C418.898 127.005 419.778 127.335 420.636 127.797L419.745 131.823C418.975 131.405 418.238 131.097 417.534 130.899C416.852 130.679 416.148 130.569 415.422 130.569C413.948 130.569 412.815 130.987 412.023 131.823C411.231 132.659 410.835 133.858 410.835 135.42C410.835 136.982 411.231 138.181 412.023 139.017C412.815 139.853 413.948 140.271 415.422 140.271C416.148 140.271 416.852 140.172 417.534 139.974C418.238 139.754 418.975 139.435 419.745 139.017L420.636 143.043C419.778 143.483 418.898 143.802 417.996 144C417.094 144.22 416.104 144.33 415.026 144.33ZM437.239 144.33C435.391 144.33 433.785 143.967 432.421 143.241C431.079 142.515 430.045 141.492 429.319 140.172C428.593 138.83 428.23 137.246 428.23 135.42C428.23 133.594 428.593 132.021 429.319 130.701C430.045 129.359 431.079 128.325 432.421 127.599C433.785 126.873 435.391 126.51 437.239 126.51C439.087 126.51 440.682 126.873 442.024 127.599C443.388 128.325 444.433 129.359 445.159 130.701C445.907 132.021 446.281 133.594 446.281 135.42C446.281 137.246 445.907 138.83 445.159 140.172C444.433 141.492 443.388 142.515 442.024 143.241C440.682 143.967 439.087 144.33 437.239 144.33ZM437.239 140.271C438.383 140.271 439.252 139.864 439.846 139.05C440.462 138.214 440.77 137.004 440.77 135.42C440.77 133.836 440.462 132.637 439.846 131.823C439.252 130.987 438.383 130.569 437.239 130.569C436.095 130.569 435.226 130.987 434.632 131.823C434.038 132.637 433.741 133.836 433.741 135.42C433.741 137.004 434.038 138.214 434.632 139.05C435.226 139.864 436.095 140.271 437.239 140.271ZM454.642 144V126.84H459.757L459.79 129.15H459.856C460.494 128.27 461.209 127.61 462.001 127.17C462.815 126.73 463.728 126.51 464.74 126.51C465.796 126.51 466.698 126.741 467.446 127.203C468.194 127.643 468.755 128.292 469.129 129.15H469.195C469.899 128.204 470.669 127.533 471.505 127.137C472.341 126.719 473.342 126.51 474.508 126.51C476.334 126.51 477.632 127.027 478.402 128.061C479.194 129.095 479.59 130.811 479.59 133.209V144H474.211V134.034C474.211 133 474.057 132.241 473.749 131.757C473.463 131.273 473.001 131.031 472.363 131.031C471.593 131.031 470.977 131.35 470.515 131.988C470.053 132.604 469.822 133.451 469.822 134.529V144H464.41V133.77C464.41 132.868 464.245 132.186 463.915 131.724C463.607 131.262 463.156 131.031 462.562 131.031C461.836 131.031 461.231 131.361 460.747 132.021C460.263 132.659 460.021 133.495 460.021 134.529V144H454.642ZM487.015 145.32L498.829 118.59H504.01L492.196 145.32H487.015ZM515.393 144.33C514.117 144.33 512.863 144.22 511.631 144C510.421 143.758 509.332 143.417 508.364 142.977L508.991 138.918C510.113 139.358 511.213 139.699 512.291 139.941C513.391 140.161 514.403 140.271 515.327 140.271C516.141 140.271 516.724 140.161 517.076 139.941C517.428 139.721 517.604 139.38 517.604 138.918C517.604 138.654 517.538 138.434 517.406 138.258C517.274 138.082 517.032 137.928 516.68 137.796C516.35 137.664 515.855 137.521 515.195 137.367C513.567 136.971 512.247 136.509 511.235 135.981C510.223 135.453 509.475 134.837 508.991 134.133C508.507 133.407 508.265 132.56 508.265 131.592C508.265 129.92 508.914 128.655 510.212 127.797C511.51 126.939 513.413 126.51 515.921 126.51C517.087 126.51 518.22 126.609 519.32 126.807C520.42 127.005 521.531 127.324 522.653 127.764L522.026 131.823C520.948 131.405 519.914 131.097 518.924 130.899C517.934 130.679 516.999 130.569 516.119 130.569C515.349 130.569 514.777 130.668 514.403 130.866C514.051 131.042 513.875 131.339 513.875 131.757C513.875 131.999 513.952 132.219 514.106 132.417C514.26 132.593 514.513 132.747 514.865 132.879C515.217 133.011 515.69 133.154 516.284 133.308C517.472 133.572 518.506 133.891 519.386 134.265C520.266 134.639 520.981 135.057 521.531 135.519C522.103 135.981 522.521 136.509 522.785 137.103C523.071 137.697 523.214 138.346 523.214 139.05C523.214 140.722 522.521 142.02 521.135 142.944C519.771 143.868 517.857 144.33 515.393 144.33ZM535.806 144.33C534.156 144.33 532.847 143.857 531.879 142.911C530.911 141.965 530.427 140.689 530.427 139.083C530.427 137.147 531.186 135.651 532.704 134.595C534.244 133.539 536.411 133.011 539.205 133.011H541.218C541.218 132.109 540.976 131.482 540.492 131.13C540.03 130.756 539.216 130.569 538.05 130.569C536.994 130.569 535.938 130.701 534.882 130.965C533.848 131.229 532.814 131.625 531.78 132.153L531.153 128.061C532.319 127.533 533.507 127.148 534.717 126.906C535.949 126.642 537.313 126.51 538.809 126.51C540.745 126.51 542.285 126.73 543.429 127.17C544.595 127.588 545.431 128.292 545.937 129.282C546.443 130.25 546.696 131.537 546.696 133.143V144H541.482L541.416 142.02H541.35C540.734 142.724 539.92 143.285 538.908 143.703C537.918 144.121 536.884 144.33 535.806 144.33ZM537.885 140.403C538.523 140.403 539.095 140.293 539.601 140.073C540.107 139.853 540.503 139.556 540.789 139.182C541.075 138.786 541.218 138.346 541.218 137.862V136.245H540.03C538.49 136.245 537.346 136.432 536.598 136.806C535.85 137.158 535.476 137.73 535.476 138.522C535.476 139.116 535.685 139.578 536.103 139.908C536.521 140.238 537.115 140.403 537.885 140.403ZM555.684 144V126.84H560.799L560.832 129.15H560.898C561.536 128.27 562.251 127.61 563.043 127.17C563.857 126.73 564.77 126.51 565.782 126.51C566.838 126.51 567.74 126.741 568.488 127.203C569.236 127.643 569.797 128.292 570.171 129.15H570.237C570.941 128.204 571.711 127.533 572.547 127.137C573.383 126.719 574.384 126.51 575.55 126.51C577.376 126.51 578.674 127.027 579.444 128.061C580.236 129.095 580.632 130.811 580.632 133.209V144H575.253V134.034C575.253 133 575.099 132.241 574.791 131.757C574.505 131.273 574.043 131.031 573.405 131.031C572.635 131.031 572.019 131.35 571.557 131.988C571.095 132.604 570.864 133.451 570.864 134.529V144H565.452V133.77C565.452 132.868 565.287 132.186 564.957 131.724C564.649 131.262 564.198 131.031 563.604 131.031C562.878 131.031 562.273 131.361 561.789 132.021C561.305 132.659 561.063 133.495 561.063 134.529V144H555.684ZM600.371 126.51C602.637 126.51 604.375 127.28 605.585 128.82C606.817 130.36 607.433 132.56 607.433 135.42C607.433 138.28 606.817 140.48 605.585 142.02C604.375 143.56 602.637 144.33 600.371 144.33C599.337 144.33 598.391 144.143 597.533 143.769C596.697 143.373 595.905 142.779 595.157 141.987H595.091V150.93H589.613V126.84H594.827L594.893 128.853H594.959C595.707 128.039 596.521 127.445 597.401 127.071C598.303 126.697 599.293 126.51 600.371 126.51ZM598.556 130.8C597.874 130.8 597.269 130.943 596.741 131.229C596.235 131.493 595.828 131.867 595.52 132.351C595.234 132.813 595.091 133.363 595.091 134.001V136.839C595.091 137.455 595.234 138.005 595.52 138.489C595.828 138.973 596.235 139.358 596.741 139.644C597.269 139.908 597.874 140.04 598.556 140.04C599.678 140.04 600.536 139.644 601.13 138.852C601.724 138.038 602.021 136.894 602.021 135.42C602.021 133.924 601.724 132.78 601.13 131.988C600.536 131.196 599.678 130.8 598.556 130.8ZM615.974 144V119.91H621.584V144H615.974ZM639.658 144.33C636.6 144.33 634.235 143.56 632.563 142.02C630.913 140.48 630.088 138.28 630.088 135.42C630.088 132.648 630.858 130.47 632.398 128.886C633.96 127.302 636.094 126.51 638.8 126.51C641.44 126.51 643.486 127.269 644.938 128.787C646.412 130.283 647.149 132.384 647.149 135.09C647.149 135.464 647.138 135.871 647.116 136.311C647.094 136.751 647.061 137.059 647.017 137.235H633.157V133.77H642.727L642.034 134.826C642.034 133.242 641.77 132.087 641.242 131.361C640.714 130.613 639.9 130.239 638.8 130.239C637.7 130.239 636.864 130.624 636.292 131.394C635.742 132.142 635.467 133.297 635.467 134.859V136.509C635.467 137.785 635.808 138.731 636.49 139.347C637.194 139.963 638.272 140.271 639.724 140.271C640.714 140.271 641.737 140.15 642.793 139.908C643.849 139.644 644.773 139.314 645.565 138.918L646.192 142.944C645.378 143.362 644.399 143.703 643.255 143.967C642.111 144.209 640.912 144.33 639.658 144.33Z" fill="white"/>
<path d="M199.596 562.713L130.908 533.589V515.927L199.596 486.646V507.37L155.4 524.797L199.596 542.067V562.713ZM206.805 473.38H244.485C251.132 473.38 257.124 474.557 262.462 476.912C267.8 479.215 272.039 482.748 275.179 487.51C278.371 492.22 279.967 498.134 279.967 505.251C279.967 512.316 278.371 518.334 275.179 523.306C272.039 528.225 267.8 531.993 262.462 534.61C257.124 537.174 251.132 538.456 244.485 538.456H230.277V577H206.805V473.38ZM230.277 519.93H237.97C241.162 519.93 244.014 519.459 246.526 518.517C249.091 517.575 251.132 516.084 252.649 514.043C254.167 511.95 254.926 509.202 254.926 505.8C254.926 502.346 254.167 499.625 252.649 497.636C251.132 495.595 249.091 494.13 246.526 493.24C244.014 492.351 241.162 491.906 237.97 491.906H230.277V519.93ZM329.031 577V566.559C328.56 567.606 327.356 569.124 325.42 571.112C323.536 573.101 321.024 574.907 317.884 576.529C314.744 578.099 311.081 578.884 306.894 578.884C300.614 578.884 295.119 577.366 290.409 574.331C285.699 571.243 282.036 567.135 279.419 562.006C276.802 556.825 275.494 551.095 275.494 544.815C275.494 538.535 276.802 532.831 279.419 527.702C282.036 522.521 285.699 518.387 290.409 515.299C295.119 512.211 300.614 510.667 306.894 510.667C310.924 510.667 314.456 511.322 317.491 512.63C320.527 513.886 322.986 515.404 324.87 517.183C326.754 518.91 328.063 520.506 328.795 521.971V512.551H352.502V577H329.031ZM298.887 544.815C298.887 547.746 299.567 550.388 300.928 552.743C302.289 555.046 304.094 556.852 306.344 558.16C308.647 559.468 311.185 560.122 313.959 560.122C316.837 560.122 319.375 559.468 321.573 558.16C323.771 556.852 325.498 555.046 326.754 552.743C328.063 550.388 328.717 547.746 328.717 544.815C328.717 541.884 328.063 539.268 326.754 536.965C325.498 534.61 323.771 532.778 321.573 531.47C319.375 530.109 316.837 529.429 313.959 529.429C311.185 529.429 308.647 530.109 306.344 531.47C304.094 532.778 302.289 534.61 300.928 536.965C299.567 539.268 298.887 541.884 298.887 544.815ZM392.059 611.462C387.558 611.462 383.084 611.069 378.636 610.284C374.24 609.499 370.131 608.165 366.311 606.281C362.491 604.397 359.272 601.806 356.656 598.509L370.629 583.987C371.832 585.4 373.298 586.786 375.025 588.147C376.804 589.508 378.976 590.633 381.54 591.523C384.157 592.412 387.323 592.857 391.039 592.857C394.493 592.857 397.502 592.255 400.066 591.052C402.63 589.848 404.619 588.095 406.032 585.792C407.497 583.489 408.23 580.69 408.23 577.393V575.822H431.702V578.806C431.702 585.923 429.922 591.915 426.364 596.782C422.857 601.649 418.121 605.312 412.155 607.772C406.189 610.232 399.49 611.462 392.059 611.462ZM408.23 577V566.559C407.759 567.606 406.555 569.124 404.619 571.112C402.735 573.101 400.223 574.907 397.083 576.529C393.943 578.099 390.28 578.884 386.093 578.884C379.813 578.884 374.318 577.366 369.608 574.331C364.898 571.243 361.235 567.135 358.618 562.006C356.001 556.825 354.693 551.095 354.693 544.815C354.693 538.535 356.001 532.831 358.618 527.702C361.235 522.521 364.898 518.387 369.608 515.299C374.318 512.211 379.813 510.667 386.093 510.667C390.123 510.667 393.655 511.322 396.691 512.63C399.726 513.886 402.186 515.404 404.07 517.183C405.954 518.91 407.262 520.506 407.995 521.971V512.551H431.702V577H408.23ZM378.086 544.815C378.086 547.746 378.766 550.388 380.127 552.743C381.488 555.046 383.293 556.852 385.544 558.16C387.846 559.468 390.384 560.122 393.158 560.122C396.036 560.122 398.575 559.468 400.773 558.16C402.971 556.852 404.698 555.046 405.954 552.743C407.262 550.388 407.916 547.746 407.916 544.815C407.916 541.884 407.262 539.268 405.954 536.965C404.698 534.61 402.971 532.778 400.773 531.47C398.575 530.109 396.036 529.429 393.158 529.429C390.384 529.429 387.846 530.109 385.544 531.47C383.293 532.778 381.488 534.61 380.127 536.965C378.766 539.268 378.086 541.884 378.086 544.815ZM456.575 549.839C456.732 552.142 457.465 554.183 458.773 555.962C460.081 557.741 461.887 559.154 464.19 560.201C466.545 561.195 469.318 561.692 472.511 561.692C475.546 561.692 478.267 561.378 480.675 560.75C483.134 560.122 485.254 559.337 487.033 558.395C488.865 557.453 490.278 556.485 491.272 555.491L500.535 570.249C499.227 571.662 497.369 573.049 494.962 574.41C492.607 575.718 489.493 576.791 485.62 577.628C481.747 578.465 476.854 578.884 470.941 578.884C463.823 578.884 457.491 577.549 451.944 574.88C446.396 572.211 442.026 568.286 438.834 563.105C435.642 557.924 434.046 551.592 434.046 544.108C434.046 537.828 435.406 532.176 438.128 527.152C440.901 522.076 444.905 518.073 450.138 515.142C455.371 512.159 461.678 510.667 469.057 510.667C476.069 510.667 482.14 511.95 487.269 514.514C492.45 517.078 496.427 520.899 499.201 525.975C502.027 530.999 503.44 537.279 503.44 544.815C503.44 545.234 503.413 546.071 503.361 547.327C503.361 548.583 503.309 549.42 503.204 549.839H456.575ZM480.989 537.358C480.936 535.683 480.491 534.034 479.654 532.412C478.817 530.737 477.561 529.377 475.886 528.33C474.211 527.231 472.066 526.681 469.449 526.681C466.832 526.681 464.608 527.205 462.777 528.251C460.997 529.246 459.637 530.554 458.695 532.176C457.753 533.799 457.229 535.526 457.125 537.358H480.989ZM553.844 468.984H572.684L520.952 592.072H502.112L553.844 468.984ZM575.289 562.713V542.067L619.485 524.797L575.289 507.37V486.646L643.898 515.927V533.589L575.289 562.713Z" fill="#272727"/>
<rect x="73" y="235" width="604" height="195" rx="19" fill="#3D3D3D" stroke="#272727" stroke-width="20"/>
<rect x="687" y="28" width="40" height="42" rx="11" fill="#6C6C6C"/>
<path d="M156.914 265.056C164.171 265.056 170.514 265.852 175.942 267.445C181.37 269.038 185.736 270.72 189.04 272.49C192.344 274.26 194.35 275.44 195.058 276.03L182.314 297.358C181.37 296.65 179.747 295.618 177.446 294.261C175.204 292.904 172.52 291.694 169.393 290.632C166.325 289.57 163.109 289.039 159.746 289.039C155.203 289.039 151.516 289.865 148.684 291.517C145.911 293.11 144.524 295.5 144.524 298.686C144.524 300.869 145.262 302.845 146.737 304.615C148.271 306.326 150.572 307.978 153.64 309.571C156.767 311.105 160.72 312.787 165.499 314.616C169.865 316.209 173.965 318.097 177.8 320.28C181.635 322.463 184.998 325.059 187.889 328.068C190.839 331.018 193.17 334.44 194.881 338.334C196.592 342.228 197.447 346.653 197.447 351.609C197.447 357.509 196.238 362.642 193.819 367.008C191.4 371.315 188.096 374.884 183.907 377.716C179.777 380.548 175.057 382.643 169.747 384C164.496 385.416 159.038 386.124 153.374 386.124C145.35 386.124 138.152 385.21 131.78 383.38C125.467 381.551 120.364 379.575 116.47 377.451C112.576 375.327 110.245 373.911 109.478 373.203L122.665 350.989C123.373 351.52 124.73 352.376 126.736 353.556C128.801 354.736 131.308 355.975 134.258 357.273C137.208 358.512 140.335 359.574 143.639 360.459C147.002 361.344 150.306 361.786 153.551 361.786C158.979 361.786 163.05 360.754 165.764 358.689C168.478 356.565 169.835 353.792 169.835 350.37C169.835 347.833 168.98 345.561 167.269 343.555C165.558 341.549 162.991 339.661 159.569 337.891C156.147 336.062 151.87 334.145 146.737 332.139C141.604 330.074 136.795 327.566 132.311 324.616C127.886 321.666 124.287 317.979 121.514 313.554C118.741 309.129 117.355 303.642 117.355 297.093C117.355 290.544 119.184 284.88 122.842 280.101C126.559 275.263 131.426 271.546 137.444 268.95C143.521 266.354 150.011 265.056 156.914 265.056ZM259.232 384V372.229C258.701 373.409 257.344 375.12 255.161 377.362C253.037 379.604 250.205 381.64 246.665 383.469C243.125 385.239 238.995 386.124 234.275 386.124C227.195 386.124 221 384.413 215.69 380.991C210.38 377.51 206.25 372.878 203.3 367.096C200.35 361.255 198.875 354.795 198.875 347.715C198.875 340.635 200.35 334.204 203.3 328.422C206.25 322.581 210.38 317.92 215.69 314.439C221 310.958 227.195 309.217 234.275 309.217C238.818 309.217 242.801 309.955 246.223 311.43C249.645 312.846 252.418 314.557 254.542 316.563C256.666 318.51 258.141 320.309 258.967 321.961V311.341H285.694V384H259.232ZM225.248 347.715C225.248 351.019 226.015 353.998 227.549 356.653C229.083 359.249 231.119 361.285 233.656 362.76C236.252 364.235 239.113 364.972 242.24 364.972C245.485 364.972 248.347 364.235 250.825 362.76C253.303 361.285 255.25 359.249 256.666 356.653C258.141 353.998 258.878 351.019 258.878 347.715C258.878 344.411 258.141 341.461 256.666 338.865C255.25 336.21 253.303 334.145 250.825 332.67C248.347 331.136 245.485 330.369 242.24 330.369C239.113 330.369 236.252 331.136 233.656 332.67C231.119 334.145 229.083 336.21 227.549 338.865C226.015 341.461 225.248 344.411 225.248 347.715ZM392.063 309.217C397.55 309.217 402.388 310.368 406.577 312.669C410.766 314.911 414.04 318.392 416.4 323.112C418.819 327.832 420.029 333.909 420.029 341.343V384H393.567V345.414C393.567 340.34 392.8 336.239 391.266 333.112C389.732 329.985 386.694 328.422 382.151 328.422C379.437 328.422 377.047 329.13 374.982 330.546C372.917 331.962 371.324 333.938 370.203 336.475C369.082 338.953 368.522 341.933 368.522 345.414V384H343.83V345.414C343.83 340.34 342.975 336.239 341.264 333.112C339.612 329.985 336.662 328.422 332.414 328.422C329.7 328.422 327.31 329.13 325.245 330.546C323.18 331.903 321.587 333.85 320.466 336.387C319.404 338.865 318.873 341.874 318.873 345.414V384H292.146V311.341H318.873V321.696C319.581 319.867 321.115 318.008 323.475 316.12C325.894 314.173 328.874 312.551 332.414 311.253C335.954 309.896 339.7 309.217 343.653 309.217C347.96 309.217 351.559 309.866 354.45 311.164C357.341 312.403 359.701 314.085 361.53 316.209C363.418 318.333 364.923 320.634 366.044 323.112C366.87 320.988 368.492 318.864 370.911 316.74C373.389 314.557 376.457 312.757 380.115 311.341C383.832 309.925 387.815 309.217 392.063 309.217ZM451.454 420.816H424.816V311.341H451.72V321.961C452.546 320.309 454.109 318.51 456.41 316.563C458.77 314.557 461.75 312.846 465.349 311.43C469.007 309.955 473.137 309.217 477.739 309.217C484.819 309.217 490.866 310.958 495.881 314.439C500.955 317.92 504.849 322.581 507.563 328.422C510.277 334.204 511.634 340.635 511.634 347.715C511.634 354.795 510.189 361.255 507.298 367.096C504.407 372.878 500.336 377.51 495.085 380.991C489.893 384.413 483.757 386.124 476.677 386.124C471.603 386.124 467.266 385.239 463.667 383.469C460.127 381.64 457.325 379.634 455.26 377.451C453.254 375.209 451.985 373.468 451.454 372.229V420.816ZM485.35 347.715C485.35 344.411 484.612 341.461 483.137 338.865C481.662 336.21 479.656 334.145 477.119 332.67C474.641 331.136 471.839 330.369 468.712 330.369C465.467 330.369 462.546 331.136 459.95 332.67C457.413 334.145 455.407 336.21 453.932 338.865C452.457 341.461 451.72 344.411 451.72 347.715C451.72 351.019 452.457 353.998 453.932 356.653C455.407 359.249 457.413 361.285 459.95 362.76C462.546 364.235 465.467 364.972 468.712 364.972C471.839 364.972 474.641 364.235 477.119 362.76C479.656 361.285 481.662 359.249 483.137 356.653C484.612 353.998 485.35 351.019 485.35 347.715ZM541.531 384H514.538V262.224H541.531V384ZM569.674 353.379C569.851 355.975 570.677 358.276 572.152 360.282C573.627 362.288 575.662 363.881 578.258 365.061C580.913 366.182 584.04 366.742 587.639 366.742C591.061 366.742 594.129 366.388 596.843 365.68C599.616 364.972 602.006 364.087 604.012 363.025C606.077 361.963 607.67 360.872 608.791 359.751L619.234 376.389C617.759 377.982 615.664 379.545 612.95 381.08C610.295 382.554 606.785 383.764 602.419 384.708C598.053 385.652 592.536 386.124 585.869 386.124C577.845 386.124 570.706 384.619 564.452 381.61C558.198 378.601 553.272 374.176 549.673 368.335C546.074 362.494 544.274 355.355 544.274 346.918C544.274 339.838 545.808 333.466 548.876 327.802C552.003 322.079 556.517 317.566 562.417 314.262C568.317 310.899 575.426 309.217 583.745 309.217C591.651 309.217 598.495 310.663 604.277 313.554C610.118 316.445 614.602 320.752 617.729 326.475C620.915 332.139 622.508 339.219 622.508 347.715C622.508 348.187 622.479 349.131 622.42 350.547C622.42 351.963 622.361 352.907 622.243 353.379H569.674ZM597.197 339.308C597.138 337.42 596.637 335.561 595.693 333.732C594.749 331.844 593.333 330.31 591.445 329.13C589.557 327.891 587.138 327.271 584.188 327.271C581.238 327.271 578.73 327.861 576.665 329.041C574.659 330.162 573.125 331.637 572.063 333.466C571.001 335.295 570.411 337.242 570.293 339.308H597.197Z" fill="#DBE91F"/>
</svg>
